# xmcd CD database file
#
# Track frame offsets:
#	150
#	20860
#	33848
#	53038
#	68615
#	82262
#	94875
#	108499
#	125799
#	139574
#
# Disc length: 2168 seconds
#
# Revision: 7
# Processed by: cddbd v1.5.2PL0 Copyright (c) Steve Scherf et al.
# Submitted via: CDex 1.51
#
DISCID=8a08760a
DTITLE=Special Blend - Wing It
DYEAR=2006
DGENRE=Blues
TTITLE0=You Don't Know
TTITLE1=Wing It
TTITLE2=Whole Lotta Blues
TTITLE3=Slice Of The Pie
TTITLE4=Pete's Theme (Dedicated to Peter Forbes)
TTITLE5=Love Electric
TTITLE6=Honey
TTITLE7=He's No Good For You
TTITLE8=Charlie Hurricane (Dedicated to Tod Vullo)
TTITLE9=Bad Woman Blues
EXTD=YEAR: 2006
EXTT0=
EXTT1=
EXTT2=
EXTT3=
EXTT4=
EXTT5=
EXTT6=
EXTT7=
EXTT8=
EXTT9=
PLAYORDER=
